<svg width="130" height="68" fill="none" xmlns="http://www.w3.org/2000/svg"><path stroke="#fff" stroke-opacity=".3" stroke-width=".75" d="M.375.625h129.129v66.75H.375z"/><g clip-path="url(#a)" fill="#8BC34A"><path d="M21.65 47.984V28.127h-6.62v-4.655h18.84v4.655h-6.692v19.857H21.65Z"/><path fill-rule="evenodd" clip-rule="evenodd" d="M97.781 15.5c-7.35 3.85-19.057 7.805-27.15 9.17-1.504.254-2.732.522-2.73.596.002.074.113.306.246.516.21.333.77.273 4.383-.466 2.566-.526 4.219-.985 4.345-1.209.13-.231.634-.36 1.41-.36 2.765 0 10.495-2.657 16.253-5.588 2.133-1.086 3.879-1.925 3.879-1.865 0 .49-6.891 8.807-11.269 13.601-2.111 2.313-2.658 3.06-2.547 3.484.154.59.823-.063 5.319-5.184 3.837-4.371 12.02-14.656 11.61-14.591-.104.016-1.79.87-3.749 1.895ZM60.267 26.162S48.601 28.16 44.089 29.64c-2.123.696-2.364.843-2.877 1.757-.617 1.097-.572 1.163.438.643 2.437-1.253 10.991-3.467 16.392-4.241 1.875-.27 2.225-.393 2.225-.787v-.85ZM33.253 36.427c-2.336 2.528-4.087 5.286-5.307 8.357-.408 1.026-.742 2.255-.742 2.255s-.769.02-2.797-.052c-4.21-.15-7.46-.803-11.22-2.255-3.085-1.191-4.675-2.079-5.587-3.116-.717-.818-.813-.85-2.335-.777l-1.586.076.965.948c3.276 3.215 11.993 5.817 20.833 6.219l3.487.158 1.286 1.19c3.874 3.58 9.188 5.088 16.78 4.763 3.89-.166 7.687-.852 11.075-2.003 3.844-1.305 11.954-5.685 11.954-6.4 0-.673-1.117-.15-2.58.742-4.649 2.836-11.569 5.565-16.113 6.354-5.218.906-13.078.124-16.918-1.683-1.699-.8-3.826-2.604-3.566-3.024.092-.149.647-.27 1.233-.27 1.098 0 6.577-.846 7.933-1.225.761-.212.761-.213.188-.522-.463-.249-1.253-.21-4.07.201-4.348.635-7.69.852-7.69.5 0-.461 2.272-4.806 3.355-6.417a42.251 42.251 0 0 1 2.045-2.766c.778-.941.974-1.375.911-2.013l-.08-.814-1.454 1.574Zm45.033 2.401c-.93.868-8.637 6.205-8.736 6.537-.126.426.205.84.636.566.334-.212 7.459-5.296 8.457-6.103 1.252-1.012 1.716-1.552 1.716-1.994 0-.334-.085-.602-.19-.596-.105.007-.953.722-1.883 1.59Zm-22.342 1.995a180.61 180.61 0 0 1-6.104 2.26c-2.787.96-2.868 1.007-1.722 1.009.808.001 2.019-.324 3.688-.991 3.056-1.222 7.444-3.251 7.444-3.443 0-.078-.029-.13-.064-.115-.034.015-1.494.591-3.242 1.28Z" stroke="#8BC34A" stroke-width=".239"/><path d="m53.128 42.965.8 4.365c-.982.473-3.31 1.054-6.255 1.054-8.474 0-12.839-5.31-12.839-12.292 0-8.365 5.965-12.984 13.384-12.984 2.873 0 5.056.545 6.038 1.09l-1.164 4.365c-1.091-.473-2.655-.91-4.655-.91-4.365 0-7.783 2.656-7.783 8.111 0 4.91 2.91 8.002 7.819 8.002 1.71 0 3.528-.328 4.655-.8Zm27.109 5.019-.4-9.383c-.11-2.946-.218-6.51-.218-10.074h-.073c-.8 3.128-1.819 6.619-2.764 9.492L73.8 47.584h-4.328l-2.619-9.456c-.8-2.91-1.6-6.4-2.218-9.601h-.073c-.11 3.31-.255 7.092-.4 10.147l-.473 9.31h-5.128l1.564-24.513h7.383l2.4 8.184c.8 2.836 1.528 5.891 2.073 8.765h.146c.654-2.837 1.49-6.074 2.327-8.802l2.583-8.146h7.273l1.31 24.512h-5.383Z"/></g><defs><clipPath id="a"><path fill="#fff" transform="translate(2.585 13)" d="M0 0h99.75v41.853H0z"/></clipPath></defs></svg>