<svg width="57" height="56" fill="none" xmlns="http://www.w3.org/2000/svg"><g clip-path="url(#a)"><path fill="#fff" d="M7.5 7h42v42h-42z"/><path d="M4.42 3.92C.5 7.877.5 14.205.5 26.88v2.24c0 12.656 0 18.984 3.92 22.96C8.377 56 14.705 56 27.38 56h2.24c12.656 0 18.984 0 22.96-3.92 3.92-3.957 3.92-10.285 3.92-22.96v-2.24c0-12.656 0-18.984-3.92-22.96C48.623 0 42.295 0 29.62 0h-2.24C14.724 0 8.396 0 4.42 3.92Zm5.525 13.123h6.422c.205 10.677 4.909 15.194 8.642 16.128V17.043h6.03v9.202c3.677-.392 7.56-4.592 8.866-9.221h6.011a17.795 17.795 0 0 1-8.176 11.63 18.42 18.42 0 0 1 9.576 11.685h-6.627c-1.418-4.424-4.965-7.859-9.65-8.326v8.326h-.747c-12.768 0-20.048-8.736-20.347-23.296Z" fill="#07F"/></g><defs><clipPath id="a"><path fill="#fff" transform="translate(.5)" d="M0 0h56v56H0z"/></clipPath></defs></svg>