<svg width="272" height="100" fill="none" xmlns="http://www.w3.org/2000/svg"><path fill="#F8F8F8" d="M0 0h272v100H0z"/><path fill-rule="evenodd" clip-rule="evenodd" d="M42.951 50.525c0-10.214 8.222-18.497 18.368-18.51v6.689c-6.48.01-11.724 5.299-11.724 11.821 0 6.523 5.26 11.828 11.751 11.828 6.492 0 11.746-5.245 11.746-11.87l6.646.006c0 10.263-8.23 18.553-18.392 18.553-10.16 0-18.395-8.293-18.395-18.517Zm10.277 0c0-4.534 3.658-8.211 8.16-8.211 4.502 0 8.162 3.677 8.162 8.211 0 4.535-3.658 8.211-8.162 8.211-4.505 0-8.16-3.673-8.16-8.21Zm18.494-15.108c-2.58 0-4.675 2.106-4.675 4.707 0 2.598 2.091 4.71 4.675 4.71 2.583 0 4.678-2.109 4.678-4.71 0-2.6-2.098-4.707-4.678-4.707Zm98.366 18.673c-.799 3.148-3.019 8.59-9.842 8.59-4.83 0-7.479-2.523-7.479-7.49 0-.897.11-1.783.233-2.668 1.313-8.235 4.86-16.039 12.643-16.117 1.035-.012 3.142-.121 4.571-.462l-.52 3.29c-1.44.371-3.723.565-5.056.574-1.653.018-2.796.65-3.589 1.416-.63.609-1.077 1.357-1.465 2.142a11.42 11.42 0 0 1 3.458-.531c6.506 0 8.466 5.67 7.046 11.253v.003Zm-3.776-1.139c.709-2.957.734-7.45-3.27-7.45-5.698 0-6.429 8.912-6.429 10.263 0 2.924 1.742 4.205 3.705 4.205 3.884 0 5.334-4.018 5.99-7.018h.004Zm42.971-1.558-.002.008-.001.004v.002l-.001.002c-.771 3.483-1.267 5.727-2.144 10.337l-.255.218-3.679.108-.179-.253 1.483-6.257.432-2.051a206.714 206.714 0 0 0-4.743-.064c-1.235 0-2.175.015-3.136.043a276.086 276.086 0 0 0-1.688 8.253l-.258.218-3.683.108-.179-.253 2.064-8.982c.973-4.293 1.154-5.235 1.733-9.2l.257-.253c1.692-.217 2.092-.293 3.821-.655l.189.253-.391 1.804-.561 2.806-.588 2.659c1.328.033 2.655.054 3.991.054 1.301 0 2.6-.032 3.9-.057.507-2.326.713-3.595 1.158-6.61l.253-.254c1.697-.217 2.095-.293 3.83-.655l.179.253c-.598 2.802-1.181 5.609-1.802 8.414Zm7.634-.674-.006.003 1.644-7.734-.179-.254c-1.737.363-2.13.438-3.83.656l-.254.253c-.579 3.964-.761 4.907-1.734 9.2l-2.058 8.981.178.254 3.688-.109.25-.217c.896-4.68 1.385-6.934 2.181-10.51 1.718 3.5 3.52 6.977 5.021 10.582l.29.218 4.013-.112.214-.287-5.603-10.73 4.702-4.363c1.192-1.07 2.426-2.09 3.613-3.163l-.105-.327h-4.158l-.4.215c-2.388 2.57-4.828 5.14-7.467 7.444Zm-25.032-7.592h-.001l.001-.003v.003Zm-.001 0-.178-.293-5.012-.033c-3.34 0-8.022.214-11.398 4.196-1.525 1.819-2.903 4.955-2.903 7.834 0 4.555 3.016 7.184 6.715 7.184 1.962 0 3.774-.601 5.302-1.858l-.254 1.456.178.26 3.41-.076.26-.257c.722-4.344.981-5.725 2.249-11.34l1.631-7.074Zm-6.935 14.223c-.396.32-.796.692-1.196.94-.943.586-2.178.843-3.156.843-3.305 0-4.249-2.807-4.249-4.556 0-.178.072-4.885 3.882-7.505 2.144-1.459 4.504-1.531 5.701-1.531.546 0 1.085.033 1.632.033l-2.617 11.776h.003Zm-82.554-5.447c-.839 3.734-2.134 6.634-4.896 6.634h-.003c-3.106 0-2.927-3.166-2.145-6.634.838-3.737 2.097-6.48 4.94-6.48 3.336 0 2.697 3.852 2.104 6.48Zm-13.733.269c-2.055 9.147 3.613 10.404 7.548 10.404 6.289 0 10.985-2.86 12.721-10.595l.004-.02c.586-2.762 2.225-10.502-7.45-10.502-9.7 0-12.056 7.278-12.823 10.713Zm30.602 9.948c-1.823 0-4.812 0-6.068.036l-.215-.226c.349-1.22 1.202-4.502 2.097-8.505.553-2.46 1.146-4.917 1.623-7.395-1.524.036-3.872.036-5.015.075l-.209-.265c.302-.991.725-2.704.991-3.732l.349-.196c1.014.036 4.869.076 7.971.076 3.753 0 7.405-.076 8.171-.115l.26.196c-.279.904-.767 2.757-1.019 3.714l-.004.017-.358.23c-1.501-.033-2.64-.033-4.803-.033-.053.234-.138.595-.253 1.091l-.001.002c-.295 1.266-.794 3.406-1.495 6.526a233.782 233.782 0 0 0-1.688 8.196l-.331.308h-.003Zm21.048-15.631-.003-.003c1.136 0 2.488.04 3.097.04-.26 1.144-.916 4.232-1.564 7.129a414.17 414.17 0 0 1-1.924 8.232l.167.272c1.56-.036 4.556-.036 6.182-.036l.28-.233c.209-1.105 1.017-5.03 1.9-8.957 1.095-4.876 2.235-9.788 2.503-10.819l-.173-.235c-2.055.04-5.907.154-9.883.154-5.075 0-7.142-.079-9.189-.079l-.319.27c-.269 1.18-1.095 5.377-2.053 9.64-.951 4.235-1.945 8.5-2.336 10.069l.212.226c1.906-.036 4.29-.036 6.146-.036l.358-.233c.277-1.407.99-4.764 1.796-8.347.68-3.048 1.423-6.175 1.611-7.015.608 0 1.975-.039 3.192-.039Z" fill="#83898A"/></svg>