<svg width="272" height="100" fill="none" xmlns="http://www.w3.org/2000/svg"><path fill="#F8F8F8" d="M0 0h272v100H0z"/><path fill-rule="evenodd" clip-rule="evenodd" d="M130.449 45.237c1.777 0 3.41.145 4.659.632 2.643 1.021 4.324 3.306 4.324 6.611 0 3.259-1.777 5.738-4.419 6.759-1.25.486-2.931.68-5.189.68h-16.238V36.777h23.972v5.348h-17.006v3.112h9.897Zm-.385 8.848c.673 0 1.201-.049 1.586-.194.816-.292 1.152-1.022 1.152-1.702a1.93 1.93 0 0 0-.123-.704 1.492 1.492 0 0 0-.741-.803 2.046 2.046 0 0 0-.219-.094 2.656 2.656 0 0 0-.388-.106c-.367-.073-.789-.092-1.267-.092h-9.512v3.695h9.512Zm18.715-17.308h10.184l9.368 23.142h-7.83l-1.346-3.354h-10.568l-1.297 3.354h-7.879l9.368-23.142Zm4.852 5.348-3.315 9.335h7.158l-3.315-9.335h-.528Zm23.666 9.19v8.604h-6.965V36.777h6.965v8.46h11.194v-8.46h6.966V59.92h-6.966v-8.605h-11.194Zm29.185 8.604v-8.751h1.922l8.311 8.751h9.272l-11.578-12.056 11.145-11.086h-8.743l-8.407 8.703h-1.922v-8.703h-6.965V59.92h6.965Z" fill="#83898A"/><path d="M44.987 21.9h55.533v28.265c0 7.246-3.82 13.941-10.02 17.565L72.755 78.1 55.007 67.73c-6.2-3.624-10.02-10.32-10.02-17.565V21.899Z" fill="#ECECED"/><path fill-rule="evenodd" clip-rule="evenodd" d="M60.227 36.777v8.791c1.188-1.357 3.348-2.276 5.817-2.276h2.684v10.22c0 2.719-.73 5.099-1.813 6.407h11.672c-1.08-1.31-1.809-3.687-1.809-6.402V43.292h2.684c2.47 0 4.629.919 5.817 2.276v-8.79H60.227Z" fill="#83898A"/></svg>