<svg width="272" height="100" fill="none" xmlns="http://www.w3.org/2000/svg"><path fill="#F8F8F8" d="M0 0h272v100H0z"/><path d="m80.934 26.474-2.207 6.195h30.585l2.208-6.195H80.934Zm-3.31 9.29-2.208 6.193H106l2.208-6.193H77.624Zm-3.304 9.29-2.208 6.192h30.585l2.206-6.194c.001.002-30.583.002-30.583.002Zm62.091 8.136v.128c1.374.516 2.687 1.42 3.374 2 2.123 1.807 3.061 4.193 3.061 7.289 0 5.098-2.624 8.773-6.935 9.936-1.314.387-2.687.516-5.248.516h-13.055V35.77h11.558c2.375 0 3.998.128 5.434.514 4.186 1.163 6.936 4.13 6.936 8.839 0 2.517-.875 4.646-2.311 6.064-.625.645-1.499 1.42-2.811 2l-.003.002Zm-11.556 3.935v9.806h4.998c1.498 0 2.874-.13 3.873-1.097 1-.968 1.436-2.194 1.436-3.806 0-1.224-.313-2.386-.937-3.225-1.061-1.355-2.375-1.678-4.622-1.678h-4.75.002Zm-.065-6.453h4.062c1.249 0 1.874 0 2.498-.192 1.688-.518 2.749-2.063 2.749-4.193 0-2.516-1.124-3.614-2.749-4.128-.688-.195-1.374-.258-2.748-.258h-3.812v8.773-.002Zm28.926 22.388V42.029h-10.432v-6.257h28.989l-2.062 6.257h-9.247v31.03h-7.248Zm20.806 0V35.772h23.49l-2.061 6.257h-14.244v8.259h5.811c4.686 0 7.122 1.162 8.81 2.644 1.313 1.162 3.561 3.741 3.561 8.84 0 5.031-2.311 7.804-4.249 9.225-2.249 1.611-4.622 2.064-9.435 2.064h-11.683v-.001Zm7.184-6.26h5.435c2.062 0 3.311-.515 4.185-1.677.436-.58 1.061-1.614 1.061-3.548s-.625-3.29-1.874-4.259c-.748-.579-1.749-.9-3.436-.9h-5.373V66.8h.002Z" fill="#83898A"/></svg>