<svg width="220" height="58" fill="none" xmlns="http://www.w3.org/2000/svg"><path d="m62.644 8.768-1.9 5.327h26.304l1.899-5.327H62.644Zm-2.847 7.989-1.9 5.326h26.304l1.899-5.326H59.797Zm-2.842 7.989-1.899 5.325H81.36l1.896-5.326c.001.001-26.301.001-26.301.001Zm53.399 6.997v.111c1.181.444 2.31 1.22 2.901 1.72 1.826 1.554 2.633 3.605 2.633 6.268 0 4.385-2.257 7.546-5.965 8.545-1.129.333-2.31.444-4.513.444H94.183V16.763h9.94c2.042 0 3.438.11 4.673.443 3.6 1 5.965 3.551 5.965 7.6 0 2.165-.752 3.997-1.988 5.216-.537.555-1.289 1.221-2.417 1.72l-.002.001Zm-9.939 3.385v8.433h4.299c1.288 0 2.471-.111 3.33-.943.86-.833 1.235-1.887 1.235-3.274 0-1.052-.269-2.052-.805-2.773-.913-1.165-2.043-1.443-3.976-1.443h-4.084.001Zm-.055-5.55h3.492c1.075 0 1.612 0 2.149-.165 1.451-.445 2.364-1.774 2.364-3.606 0-2.163-.967-3.107-2.364-3.55-.592-.167-1.181-.222-2.364-.222h-3.277v7.545-.001Zm24.876 19.254V22.145h-8.972v-5.38h24.93l-1.773 5.38h-7.952v26.687h-6.233Zm17.892 0V16.764h20.202l-1.772 5.381h-12.25v7.103h4.998c4.029 0 6.124 1 7.576 2.274 1.129 1 3.062 3.217 3.062 7.602 0 4.327-1.987 6.712-3.654 7.934-1.934 1.385-3.975 1.775-8.114 1.775h-10.048v-.001Zm6.179-5.383h4.674c1.773 0 2.847-.444 3.599-1.443.375-.498.913-1.388.913-3.051 0-1.664-.538-2.83-1.612-3.663-.643-.498-1.504-.774-2.955-.774h-4.621v8.93h.002Z" fill="#83898A"/></svg>