<svg width="220" height="56" fill="none" xmlns="http://www.w3.org/2000/svg"><path d="M20.237 45.055H44.09v4.93H20.237v-4.93Zm172.499-15.823 7.52-8.266h-5.604l-6.163 6.87v-6.87h-4.467v17.372h4.489V31.02l6.589 7.317h5.758l-8.122-9.106ZM46.717 30.377c-.12 3.272-.536 3.893-2.353 3.893v4.079h.678c4.565 0 5.649-2.345 5.813-7.568l.197-5.78h4.215v13.337h4.466V20.966h-12.71l-.306 9.411ZM27.33 33.365h9.415l1.565 4.973h5.221l-7.038-20.894c-.679-2.017-1.467-3.62-4.16-3.62s-3.514 1.603-4.236 3.62l-7.379 20.894h4.905l1.707-4.973Zm4.773-14.089h.12l3.153 9.902h-6.633l3.36-9.902Zm104.334 4.155h-4.981v-4.907h11.56v-4.362h-16.245v24.176h9.666c5.353 0 8.429-2.661 8.429-7.525 0-4.612-3.12-7.382-8.429-7.382Zm-.23 10.534h-4.751v-6.281h4.751c2.474 0 3.864 1.09 3.864 3.14s-1.39 3.14-3.864 3.14Zm-44.17-13.402v-6.434H87.58v6.434a8.85 8.85 0 0 0-6.153 2.777 8.782 8.782 0 0 0-2.385 6.296 8.792 8.792 0 0 0 2.376 6.314 8.86 8.86 0 0 0 6.162 2.791v6.543h4.467v-6.543a8.863 8.863 0 0 0 6.165-2.788 8.793 8.793 0 0 0 2.373-6.317 8.691 8.691 0 0 0-2.365-6.322 8.758 8.758 0 0 0-6.184-2.751Zm-4.445 13.98a4.536 4.536 0 0 1-3.017-1.634 4.502 4.502 0 0 1-1-3.273 4.557 4.557 0 0 1 1.017-3.26 4.59 4.59 0 0 1 3-1.647v9.814Zm4.466 0v-9.814a4.59 4.59 0 0 1 3 1.648 4.557 4.557 0 0 1 1.018 3.259 4.524 4.524 0 0 1-1.007 3.267 4.558 4.558 0 0 1-3.01 1.64Zm25.266-1.538V27.15c0-4.274-2.726-6.946-7.302-6.946s-7.247 2.835-7.466 5.79h4.522c.153-.632.831-1.755 2.933-1.755a2.559 2.559 0 0 1 2.153.747 2.521 2.521 0 0 1 .693 2.164h-4.378c-3.963 0-6.317 2.083-6.317 5.53a5.876 5.876 0 0 0 3.858 5.735 5.924 5.924 0 0 0 2.426.35 5.694 5.694 0 0 0 2.703-.526 5.663 5.663 0 0 0 2.135-1.732 3.785 3.785 0 0 0 3.591 1.832h1.543v-4.013c-.755 0-1.094-.36-1.094-1.32Zm-4.467-1.09a3.043 3.043 0 0 1-2.015 2.99 3.066 3.066 0 0 1-1.269.172c-1.609 0-2.879-.578-2.879-2.312 0-1.733 1.413-1.984 2.606-1.984h3.557v1.134Zm-42.002-5.67h-3.208v-5.279h-4.466v17.372h7.75c4.85 0 6.568-3.14 6.568-6.107.022-3.828-2.386-5.987-6.644-5.987Zm-.329 8.298h-2.879V30.18h2.88c1.543 0 2.473.698 2.473 2.18 0 1.484-.886 2.182-2.474 2.182Zm91.384-1.538V27.15c0-4.274-2.726-6.946-7.302-6.946-4.575 0-7.246 2.835-7.465 5.79h4.521c.153-.632.832-1.755 2.933-1.755a2.559 2.559 0 0 1 2.154.747 2.535 2.535 0 0 1 .693 2.164h-4.379c-3.963 0-6.316 2.083-6.316 5.53a5.862 5.862 0 0 0 1.783 4.434 5.903 5.903 0 0 0 4.5 1.65 5.673 5.673 0 0 0 4.893-2.257 3.766 3.766 0 0 0 1.501 1.415 3.79 3.79 0 0 0 2.024.417h1.544v-4.013c-.778 0-1.084-.36-1.084-1.32Zm-4.445-1.09a3.046 3.046 0 0 1-2.017 2.987 3.074 3.074 0 0 1-1.267.175c-1.609 0-2.879-.578-2.879-2.312 0-1.733 1.413-1.984 2.606-1.984h3.557v1.134Zm18.708-4.482h-6.163v-6.467h-4.466V38.35h4.466V31.5h6.163v6.838h4.467V20.966h-4.467v6.467Z" fill="#83898A"/></svg>