<svg width="220" height="58" fill="none" xmlns="http://www.w3.org/2000/svg"><path d="M71.063 8.408 57.684 22.132h13.377v27.46l13.367-13.69V8.408H71.061Z" fill="#83898A"/><path d="m57.686 49.592 13.377-13.724H57.686V8.408L44.32 22.098v27.494h13.366Zm40.12-6.867h7.017v-21.28h10.651v21.278h7.017V15.276H97.806v27.448Zm68.187-17.176h-5.999v-4.102h13.355v-6.183h-20.383v27.46h13.356c5.352 0 9.359-2.753 9.359-8.587s-4.007-8.588-9.699-8.588h.011Zm-.679 11.32h-5.331v-5.463h5.331c1.653 0 3.284.674 3.284 2.73 0 2.058-1.674 2.732-3.284 2.732Zm-25.604 0c-4.685 0-7.323-3.53-7.323-7.869 0-3.496 1.915-7.868 7.181-7.868 1.18.01 2.343.286 3.408.809a8.118 8.118 0 0 1 2.755 2.215L150 19.771a14.057 14.057 0 0 0-4.822-3.808 13.701 13.701 0 0 0-5.939-1.352 13.243 13.243 0 0 0-5.404.996 13.547 13.547 0 0 0-4.578 3.113 13.97 13.97 0 0 0-3 4.723 14.278 14.278 0 0 0-.931 5.556 14.555 14.555 0 0 0 2.609 8.444 13.951 13.951 0 0 0 6.951 5.245c2.8.949 5.82.96 8.627.034a13.944 13.944 0 0 0 6.99-5.191l-4.291-4.407a7.67 7.67 0 0 1-2.798 2.778 7.44 7.44 0 0 1-3.77.988" fill="#83898A"/></svg>