<svg width="184" height="58" fill="none" xmlns="http://www.w3.org/2000/svg"><path fill-rule="evenodd" clip-rule="evenodd" d="M86.449 24.237c1.777 0 3.41.145 4.66.632 2.642 1.021 4.323 3.306 4.323 6.611 0 3.259-1.777 5.738-4.42 6.759-1.249.486-2.93.68-5.188.68H69.586V15.777h23.972v5.348H76.552v3.112h9.897Zm-.385 8.848c.673 0 1.201-.049 1.586-.194.816-.292 1.152-1.022 1.152-1.702 0-.257-.04-.494-.123-.704a1.518 1.518 0 0 0-.192-.349 1.543 1.543 0 0 0-.55-.454 2.036 2.036 0 0 0-.218-.094 2.683 2.683 0 0 0-.388-.106c-.367-.073-.789-.092-1.267-.092h-9.512v3.695h9.512Zm18.715-17.308h10.184l9.368 23.142h-7.83l-1.346-3.354h-10.568l-1.297 3.354h-7.879l9.368-23.142Zm4.852 5.348-3.315 9.335h7.158l-3.315-9.335h-.528Zm23.666 9.19v8.604h-6.965V15.777h6.965v8.46h11.194v-8.46h6.966V38.92h-6.966v-8.605h-11.194Zm29.185 8.604v-8.751h1.922l8.311 8.751h9.272l-11.578-12.056 11.145-11.086h-8.743l-8.407 8.703h-1.922v-8.703h-6.965V38.92h6.965Z" fill="#83898A"/><path d="M.987.9H56.52v28.265c0 7.246-3.82 13.941-10.02 17.565L28.754 57.1 11.007 46.73C4.807 43.106.987 36.41.987 29.165V.899Z" fill="#ECECED"/><path fill-rule="evenodd" clip-rule="evenodd" d="M16.227 15.777v8.792c1.188-1.358 3.348-2.277 5.817-2.277h2.684v10.22c0 2.719-.73 5.099-1.814 6.407h11.673c-1.08-1.31-1.809-3.687-1.809-6.402V22.292h2.684c2.47 0 4.629.919 5.817 2.276v-8.79H16.227Z" fill="#83898A"/></svg>