<svg width="57" height="56" fill="none" xmlns="http://www.w3.org/2000/svg"><g clip-path="url(#a)"><path d="M28.5 0A27.996 27.996 0 0 0 8.703 8.2 28.009 28.009 0 0 0 .5 28c0 7.423 2.953 14.55 8.203 19.8a27.996 27.996 0 0 0 39.594 0A28.009 28.009 0 0 0 56.5 28c0-7.423-2.953-14.55-8.203-19.8A27.996 27.996 0 0 0 28.5 0Z" fill="url(#b)"/><path d="M13.174 27.704c8.164-3.556 13.606-5.9 16.328-7.033 7.778-3.235 9.393-3.796 10.447-3.815.232-.004.748.053 1.085.326.28.23.359.54.398.758.035.218.083.714.044 1.102-.42 4.427-2.245 15.172-3.172 20.13-.39 2.099-1.164 2.803-1.912 2.871-1.627.15-2.861-1.074-4.436-2.106-2.463-1.616-3.854-2.621-6.248-4.198-2.765-1.822-.97-2.823.604-4.46.411-.427 7.578-6.944 7.713-7.535.018-.074.035-.35-.131-.495-.162-.146-.402-.096-.578-.056-.249.056-4.182 2.658-11.812 7.806-1.116.767-2.126 1.141-3.036 1.122-.998-.022-2.923-.566-4.353-1.03-1.75-.57-3.146-.872-3.024-1.84.062-.504.757-1.02 2.083-1.547Z" fill="#fff"/></g><defs><linearGradient id="b" x1="2800.5" y1="0" x2="2800.5" y2="5600" gradientUnits="userSpaceOnUse"><stop stop-color="#2AABEE"/><stop offset="1" stop-color="#229ED9"/></linearGradient><clipPath id="a"><path fill="#fff" transform="translate(.5)" d="M0 0h56v56H0z"/></clipPath></defs></svg>