<svg width="24" height="24" viewBox="0 0 24 24" fill="none" xmlns="http://www.w3.org/2000/svg">
<rect width="24" height="24" fill="#8BC34A"/>
<path d="M10.4145 13.4722L15.8863 8.18708C16.0154 8.06236 16.1688 8 16.3466 8C16.5244 8 16.6776 8.06236 16.8063 8.18708C16.9354 8.3118 17 8.46001 17 8.63171C17 8.80342 16.9354 8.95142 16.8063 9.07572L10.8664 14.8129C10.7373 14.9376 10.5866 15 10.4145 15C10.2423 15 10.0916 14.9376 9.9625 14.8129L7.18624 12.1314C7.05711 12.0067 6.99513 11.8585 7.0003 11.6868C7.00546 11.5151 7.07282 11.3671 7.20238 11.2428C7.33151 11.118 7.48496 11.0557 7.66273 11.0557C7.84049 11.0557 7.99373 11.118 8.12242 11.2428L10.4145 13.4722Z" fill="white"/>
</svg>
