<svg width="130" height="68" viewBox="0 0 130 68" fill="none" xmlns="http://www.w3.org/2000/svg">
<rect x="0.375" y="0.625" width="129.129" height="66.75" stroke="white" stroke-opacity="0.3" stroke-width="0.75"/>
<g clip-path="url(#clip0_6174_10991)">
<path d="M21.6501 47.9844V28.1267H15.0309V23.4715H33.8702V28.1267H27.1782V47.9844H21.6501Z" fill="#8BC34A"/>
<path fill-rule="evenodd" clip-rule="evenodd" d="M97.7811 15.4993C90.4319 19.3507 78.7241 23.3053 70.6313 24.67C69.1274 24.9236 67.899 25.1916 67.901 25.2657C67.9033 25.3399 68.0137 25.5721 68.1467 25.7819C68.3578 26.1149 68.9161 26.0553 72.5301 25.3155C75.0963 24.7901 76.7489 24.3307 76.8751 24.1074C77.0058 23.876 77.5094 23.7473 78.2843 23.7473C81.0499 23.7473 88.7801 21.0895 94.5384 18.1591C96.6714 17.0734 98.4169 16.2341 98.4169 16.2936C98.4169 16.7832 91.5258 25.1008 87.1483 29.895C85.0366 32.2076 84.49 32.9553 84.6009 33.3791C84.7548 33.9683 85.4244 33.3157 89.9195 28.1953C93.7568 23.8238 101.94 13.539 101.53 13.6038C101.426 13.6201 99.7394 14.4731 97.7811 15.4993ZM60.2673 26.1634C60.2673 26.1634 48.6009 28.1612 44.0891 29.6409C41.9659 30.337 41.7251 30.484 41.2116 31.3976C40.5948 32.4947 40.6401 32.5609 41.6503 32.0413C44.087 30.7879 52.6414 28.5742 58.0419 27.7995C59.9171 27.5307 60.2673 27.4069 60.2673 27.0126C60.2673 26.4315 60.2673 26.1634 60.2673 26.1634ZM33.2533 36.4267C30.917 38.9553 29.1657 41.713 27.9457 44.7843C27.538 45.8105 27.2043 47.0391 27.2043 47.0391C27.2043 47.0391 26.435 47.0598 24.4067 46.9875C20.1972 46.8375 16.9466 46.1838 13.1864 44.7316C10.1023 43.5406 8.5115 42.6532 7.60049 41.6156C6.88302 40.7984 6.78689 40.7663 5.26548 40.8391L3.67871 40.9146L4.64441 41.8628C7.92044 45.0783 16.6366 47.6803 25.4771 48.0819L28.9638 48.2404L30.2502 49.4291C34.1244 53.0096 39.4379 54.518 47.0309 54.1932C50.9209 54.0269 54.7165 53.3405 58.1055 52.1899C61.9487 50.8854 70.059 46.5054 70.059 45.79C70.059 45.117 68.9415 45.6409 67.4796 46.5325C62.8304 49.3681 55.9104 52.0965 51.3657 52.886C46.1476 53.7922 38.2885 53.0103 34.4476 51.2026C32.7495 50.4032 30.6223 48.5995 30.8822 48.1791C30.974 48.0303 31.5289 47.9087 32.1152 47.9087C33.2129 47.9087 38.6922 47.0628 40.048 46.6844C40.809 46.4718 40.8095 46.4705 40.236 46.1622C39.7726 45.9132 38.9831 45.9522 36.1667 46.3634C31.8181 46.9982 28.476 47.2152 28.476 46.8621C28.476 46.4018 30.7481 42.0566 31.8311 40.4456C32.4099 39.5845 33.3299 38.34 33.8757 37.6803C34.6537 36.739 34.8503 36.3051 34.7874 35.667L34.7071 34.8534L33.2533 36.4267ZM78.2861 38.8281C77.3555 39.6959 69.6491 45.0333 69.5504 45.3654C69.4243 45.7907 69.7548 46.2057 70.1862 45.9311C70.52 45.7186 77.6446 40.6348 78.6427 39.8281C79.895 38.8161 80.3594 38.2765 80.3594 37.8339C80.3594 37.5 80.2737 37.2322 80.1687 37.2385C80.0636 37.2451 79.2165 37.9603 78.2861 38.8281ZM55.9437 40.8233C54.1952 41.5123 51.4484 42.5291 49.8397 43.083C47.053 44.0426 46.9717 44.0902 48.1179 44.092C48.9259 44.0932 50.1368 43.7677 51.8057 43.1008C54.8623 41.8793 59.25 39.85 59.25 39.6577C59.25 39.5796 59.2212 39.528 59.1864 39.5433C59.1516 39.5583 57.6922 40.1343 55.9437 40.8233Z" fill="#8BC34A" stroke="#8BC34A" stroke-width="0.239225"/>
<path d="M53.1282 42.9654L53.9283 47.3297C52.9464 47.8025 50.6187 48.3844 47.6728 48.3844C39.1988 48.3844 34.8344 43.0745 34.8344 36.0916C34.8344 27.7267 40.799 23.1078 48.2184 23.1078C51.0915 23.1078 53.2737 23.6533 54.2557 24.1989L53.0918 28.5632C52.0008 28.0904 50.4369 27.6539 48.4366 27.6539C44.0723 27.6539 40.6535 30.3089 40.6535 35.7643C40.6535 40.6741 43.5631 43.7655 48.4729 43.7655C50.1823 43.7655 52.0008 43.4382 53.1282 42.9654Z" fill="#8BC34A"/>
<path d="M80.237 47.9844L79.8369 38.6011C79.7278 35.6552 79.6187 32.091 79.6187 28.5268H79.546C78.7459 31.6546 77.7275 35.146 76.7819 38.0192L73.7996 47.5843H69.4717L66.8531 38.1283C66.053 35.2188 65.2528 31.7273 64.6346 28.5268H64.5618C64.4527 31.8364 64.3072 35.6188 64.1618 38.6738L63.689 47.9844H58.5609L60.1248 23.4715H67.5077L69.9081 31.6546C70.7082 34.4914 71.4356 37.5464 71.9812 40.4196H72.1266C72.7813 37.5828 73.6178 34.3459 74.4543 31.6182L77.0365 23.4715H84.3104L85.6196 47.9844H80.237Z" fill="#8BC34A"/>
</g>
<defs>
<clipPath id="clip0_6174_10991">
<rect width="99.75" height="41.8531" fill="white" transform="translate(2.58496 13)"/>
</clipPath>
</defs>
</svg>
