<svg width="57" height="56" viewBox="0 0 57 56" fill="none" xmlns="http://www.w3.org/2000/svg">
<g clip-path="url(#clip0_6171_8993)">
<path d="M28.5 0C21.0756 0 13.9487 2.95181 8.70312 8.20094C3.45213 13.4522 0.501503 20.5738 0.5 28C0.5 35.4231 3.45312 42.5499 8.70312 47.7991C13.9487 53.0482 21.0756 56 28.5 56C35.9244 56 43.0513 53.0482 48.2969 47.7991C53.5469 42.5499 56.5 35.4231 56.5 28C56.5 20.5769 53.5469 13.4501 48.2969 8.20094C43.0513 2.95181 35.9244 0 28.5 0Z" fill="url(#paint0_linear_6171_8993)"/>
<path d="M13.174 27.7041C21.3377 24.1481 26.7802 21.8037 29.5015 20.6709C37.2802 17.4364 38.8946 16.8747 39.949 16.8556C40.1808 16.8519 40.6971 16.9092 41.034 17.1816C41.314 17.4113 41.3927 17.7219 41.4321 17.94C41.4671 18.1579 41.5152 18.6544 41.4759 19.042C41.0559 23.4695 39.2315 34.2137 38.304 39.1727C37.9146 41.271 37.1402 41.9745 36.3921 42.0432C34.7646 42.1928 33.5309 40.9687 31.9559 39.9366C29.4927 38.3209 28.1015 37.3155 25.7084 35.7392C22.9434 33.9175 24.7371 32.916 26.3121 31.2798C26.7234 30.8515 33.8896 24.3349 34.0252 23.7439C34.0427 23.6699 34.0602 23.3943 33.894 23.249C33.7321 23.1034 33.4915 23.1532 33.3165 23.1926C33.0671 23.2486 29.134 25.8509 21.504 30.9989C20.3884 31.7663 19.3777 32.1404 18.4677 32.1207C17.4702 32.0992 15.5452 31.5554 14.1146 31.0908C12.3646 30.5207 10.969 30.2193 11.0915 29.2511C11.1527 28.7471 11.8484 28.2313 13.174 27.7041Z" fill="white"/>
</g>
<defs>
<linearGradient id="paint0_linear_6171_8993" x1="2800.5" y1="0" x2="2800.5" y2="5600" gradientUnits="userSpaceOnUse">
<stop stop-color="#2AABEE"/>
<stop offset="1" stop-color="#229ED9"/>
</linearGradient>
<clipPath id="clip0_6171_8993">
<rect width="56" height="56" fill="white" transform="translate(0.5)"/>
</clipPath>
</defs>
</svg>
