<svg width="57" height="56" viewBox="0 0 57 56" fill="none" xmlns="http://www.w3.org/2000/svg">
<g clip-path="url(#clip0_6171_8992)">
<rect x="7.5" y="7" width="42" height="42" fill="white"/>
<path d="M4.42 3.92C0.500001 7.87733 0.5 14.2053 0.5 26.88V29.12C0.5 41.776 0.500001 48.104 4.42 52.08C8.37733 56 14.7053 56 27.38 56H29.62C42.276 56 48.604 56 52.58 52.08C56.5 48.1227 56.5 41.7947 56.5 29.12V26.88C56.5 14.224 56.5 7.896 52.58 3.92C48.6227 7.41747e-07 42.2947 0 29.62 0H27.38C14.724 0 8.396 7.41747e-07 4.42 3.92ZM9.94533 17.0427H16.3667C16.572 27.72 21.276 32.2373 25.0093 33.1707V17.0427H31.0387V26.2453C34.716 25.8533 38.5987 21.6533 39.9053 17.024H45.916C45.4256 19.4202 44.4464 21.6896 43.0397 23.6905C41.6329 25.6914 39.8288 27.3809 37.74 28.6533C40.0716 29.8134 42.1306 31.4547 43.7813 33.4689C45.432 35.4832 46.6367 37.8246 47.316 40.3387H40.6893C39.2707 35.9147 35.724 32.48 31.0387 32.0133V40.3387H30.292C17.524 40.3387 10.244 31.6027 9.94533 17.0427Z" fill="#0077FF"/>
</g>
<defs>
<clipPath id="clip0_6171_8992">
<rect width="56" height="56" fill="white" transform="translate(0.5)"/>
</clipPath>
</defs>
</svg>
