<svg width="272" height="100" viewBox="0 0 272 100" fill="none" xmlns="http://www.w3.org/2000/svg">
<rect width="272" height="100" fill="#F8F8F8"/>
<path d="M46.2368 67.0551H70.0898V71.9841H46.2368V67.0551ZM218.736 51.2322L226.256 42.9664H220.652L214.489 49.8364V42.9664H210.022V60.3378H214.511V53.0206L221.1 60.3378H226.858L218.736 51.2322ZM72.717 52.3773C72.5966 55.6487 72.1807 56.2703 70.3635 56.2703V60.3487H71.0422C75.607 60.3487 76.6907 58.0041 76.8549 52.7807L77.052 47.0012H81.2665V60.3378H85.7327V42.9664H73.0236L72.717 52.3773ZM53.3303 55.3652H62.7445L64.3099 60.3378H69.5315L62.4928 39.4441C61.8141 37.4267 61.0259 35.8237 58.333 35.8237C55.6401 35.8237 54.8191 37.4267 54.0966 39.4441L46.7185 60.3378H51.6226L53.3303 55.3652ZM58.1031 41.2761H58.2235L61.3762 51.1777H54.7425L58.1031 41.2761ZM162.437 45.4309H157.456V40.5237H169.016V36.1618H152.771V60.3378H162.437C167.79 60.3378 170.866 57.677 170.866 52.8134C170.866 48.2007 167.746 45.4309 162.437 45.4309ZM162.207 55.9649H157.456V49.6838H162.207C164.681 49.6838 166.071 50.7742 166.071 52.8244C166.071 54.8745 164.681 55.9649 162.207 55.9649ZM118.037 42.5629V36.1291H113.581V42.5629C111.242 42.6398 109.029 43.6385 107.428 45.3395C105.827 47.0407 104.969 49.3051 105.043 51.6357C104.963 53.9711 105.818 56.2424 107.419 57.9499C109.02 59.6576 111.237 60.6616 113.581 60.7413V67.2841H118.048V60.7413C119.209 60.7032 120.351 60.4374 121.409 59.9589C122.467 59.4805 123.42 58.7989 124.213 57.9531C125.006 57.1072 125.624 56.1139 126.031 55.0299C126.439 53.9458 126.627 52.7924 126.586 51.6357C126.633 50.4783 126.448 49.3231 126.042 48.2378C125.636 47.1523 125.017 46.1583 124.221 45.3138C123.425 44.4693 122.468 43.791 121.407 43.3187C120.345 42.8464 119.199 42.5895 118.037 42.5629ZM113.592 56.5429C112.41 56.4136 111.327 55.8266 110.575 54.9086C109.824 53.9906 109.464 52.8152 109.575 51.6357C109.478 50.4592 109.843 49.2912 110.592 48.3765C111.341 47.4617 112.416 46.8712 113.592 46.7286V56.5429ZM118.059 56.5429V46.7286C119.235 46.8712 120.31 47.4617 121.059 48.3765C121.808 49.2912 122.172 50.4592 122.076 51.6357C122.181 52.814 121.819 53.9864 121.069 54.9031C120.319 55.8198 119.238 56.4082 118.059 56.5429ZM143.324 55.0053V49.1494C143.324 44.8747 140.598 42.2031 136.022 42.2031C131.446 42.2031 128.775 45.0383 128.556 47.9935H133.078C133.231 47.361 133.909 46.2378 136.011 46.2378C136.404 46.1875 136.803 46.2287 137.176 46.3584C137.55 46.4882 137.889 46.7027 138.164 46.9853C138.44 47.2677 138.647 47.6103 138.768 47.9859C138.888 48.3616 138.919 48.7599 138.857 49.1494H134.479C130.516 49.1494 128.162 51.2322 128.162 54.6782C128.132 55.5005 128.274 56.3201 128.581 57.084C128.889 57.8479 129.354 58.5389 129.946 59.1125C130.538 59.6861 131.245 60.1294 132.02 60.4138C132.795 60.6981 133.622 60.817 134.446 60.7631C135.376 60.8118 136.305 60.6313 137.149 60.2377C137.993 59.8439 138.726 59.2491 139.284 58.5058C139.648 59.1181 140.178 59.6151 140.814 59.9393C141.449 60.2636 142.163 60.4018 142.875 60.3378H144.418V56.3248C143.663 56.3248 143.324 55.9649 143.324 55.0053ZM138.857 53.9148C138.876 54.3444 138.803 54.7729 138.642 55.1722C138.482 55.5714 138.239 55.9323 137.929 56.2311C137.618 56.5299 137.248 56.7598 136.842 56.9057C136.436 57.0515 136.004 57.1099 135.573 57.0772C133.964 57.0772 132.694 56.4993 132.694 54.7654C132.694 53.0315 134.107 52.7807 135.3 52.7807H138.857V53.9148ZM96.8547 48.2443H93.6473V42.9664H89.181V60.3378H96.9313C101.781 60.3378 103.499 57.1972 103.499 54.2311C103.521 50.4035 101.113 48.2443 96.8547 48.2443ZM96.5263 56.5429H93.6473V52.181H96.5263C98.0698 52.181 99.0002 52.8789 99.0002 54.3619C99.0002 55.845 98.1135 56.5429 96.5263 56.5429ZM187.91 55.0053V49.1494C187.91 44.8747 185.184 42.2031 180.608 42.2031C176.033 42.2031 173.362 45.0383 173.143 47.9935H177.664C177.817 47.361 178.496 46.2378 180.597 46.2378C180.99 46.1875 181.389 46.2287 181.762 46.3584C182.137 46.4882 182.475 46.7027 182.751 46.9853C183.027 47.2677 183.233 47.6103 183.354 47.9859C183.474 48.3616 183.505 48.7599 183.444 49.1494H179.065C175.102 49.1494 172.749 51.2322 172.749 54.6782C172.718 55.5005 172.86 56.3201 173.168 57.084C173.474 57.8479 173.94 58.5389 174.532 59.1125C175.124 59.6861 175.831 60.1294 176.606 60.4138C177.381 60.6981 178.208 60.817 179.032 60.7631C179.971 60.821 180.911 60.645 181.765 60.251C182.619 59.8569 183.361 59.2571 183.925 58.5058C184.283 59.1074 184.803 59.5976 185.426 59.9212C186.049 60.2449 186.75 60.3891 187.45 60.3378H188.994V56.3248C188.216 56.3248 187.91 55.9649 187.91 55.0053ZM183.465 53.9148C183.482 54.3439 183.407 54.7716 183.247 55.1701C183.086 55.5686 182.843 55.9287 182.533 56.2272C182.223 56.5256 181.853 56.7555 181.448 56.9021C181.043 57.0486 180.612 57.1082 180.181 57.0772C178.572 57.0772 177.302 56.4993 177.302 54.7654C177.302 53.0315 178.715 52.7807 179.908 52.7807H183.465V53.9148ZM202.173 49.433H196.01V42.9664H191.544V60.3487H196.01V53.5004H202.173V60.3378H206.64V42.9664H202.173V49.433Z" fill="#83898A"/>
</svg>
