<svg width="220" height="56" viewBox="0 0 220 56" fill="none" xmlns="http://www.w3.org/2000/svg">
<path d="M20.2368 45.0551H44.0898V49.9841H20.2368V45.0551ZM192.736 29.2322L200.256 20.9664H194.652L188.489 27.8364V20.9664H184.022V38.3378H188.511V31.0206L195.1 38.3378H200.858L192.736 29.2322ZM46.717 30.3773C46.5966 33.6487 46.1807 34.2703 44.3635 34.2703V38.3487H45.0422C49.607 38.3487 50.6907 36.0041 50.8549 30.7807L51.052 25.0012H55.2665V38.3378H59.7327V20.9664H47.0236L46.717 30.3773ZM27.3303 33.3652H36.7445L38.3099 38.3378H43.5315L36.4928 17.4441C35.8141 15.4267 35.0259 13.8237 32.333 13.8237C29.6401 13.8237 28.8191 15.4267 28.0966 17.4441L20.7185 38.3378H25.6226L27.3303 33.3652ZM32.1031 19.2761H32.2235L35.3762 29.1777H28.7425L32.1031 19.2761ZM136.437 23.4309H131.456V18.5237H143.016V14.1618H126.771V38.3378H136.437C141.79 38.3378 144.866 35.677 144.866 30.8134C144.866 26.2007 141.746 23.4309 136.437 23.4309ZM136.207 33.9649H131.456V27.6838H136.207C138.681 27.6838 140.071 28.7742 140.071 30.8244C140.071 32.8745 138.681 33.9649 136.207 33.9649ZM92.0367 20.5629V14.1291H87.5813V20.5629C85.2419 20.6398 83.0287 21.6385 81.4277 23.3395C79.8269 25.0407 78.9691 27.3051 79.0428 29.6357C78.9632 31.9711 79.8179 34.2424 81.4192 35.9499C83.0204 37.6576 85.237 38.6616 87.5813 38.7413V45.2841H92.0476V38.7413C93.2088 38.7032 94.3512 38.4374 95.4091 37.9589C96.4671 37.4805 97.4199 36.7989 98.2132 35.9531C99.0062 35.1072 99.6241 34.1139 100.031 33.0299C100.439 31.9458 100.627 30.7924 100.586 29.6357C100.633 28.4783 100.448 27.3231 100.042 26.2378C99.6357 25.1523 99.0166 24.1583 98.2208 23.3138C97.425 22.4693 96.4682 21.791 95.4065 21.3187C94.3447 20.8464 93.1992 20.5895 92.0367 20.5629ZM87.5923 34.5429C86.4102 34.4136 85.3266 33.8266 84.5751 32.9086C83.8235 31.9906 83.4642 30.8152 83.5748 29.6357C83.4785 28.4592 83.8429 27.2912 84.5919 26.3765C85.3407 25.4617 86.416 24.8712 87.5923 24.7286V34.5429ZM92.0585 34.5429V24.7286C93.2348 24.8712 94.3101 25.4617 95.0589 26.3765C95.8079 27.2912 96.1723 28.4592 96.076 29.6357C96.1808 30.814 95.8194 31.9864 95.0689 32.9031C94.3185 33.8198 93.2383 34.4082 92.0585 34.5429ZM117.324 33.0053V27.1494C117.324 22.8747 114.598 20.2031 110.022 20.2031C105.446 20.2031 102.775 23.0383 102.556 25.9935H107.078C107.231 25.361 107.909 24.2378 110.011 24.2378C110.404 24.1875 110.803 24.2287 111.176 24.3584C111.55 24.4882 111.889 24.7027 112.164 24.9853C112.44 25.2677 112.647 25.6103 112.768 25.9859C112.888 26.3616 112.919 26.7599 112.857 27.1494H108.479C104.516 27.1494 102.162 29.2322 102.162 32.6782C102.132 33.5005 102.274 34.3201 102.581 35.084C102.889 35.8479 103.354 36.5389 103.946 37.1125C104.538 37.6861 105.245 38.1294 106.02 38.4138C106.795 38.6981 107.622 38.817 108.446 38.7631C109.376 38.8118 110.305 38.6313 111.149 38.2377C111.993 37.8439 112.726 37.2491 113.284 36.5058C113.648 37.1181 114.178 37.6151 114.814 37.9393C115.449 38.2636 116.163 38.4018 116.875 38.3378H118.418V34.3248C117.663 34.3248 117.324 33.9649 117.324 33.0053ZM112.857 31.9148C112.876 32.3444 112.803 32.7729 112.642 33.1722C112.482 33.5714 112.239 33.9323 111.929 34.2311C111.618 34.5299 111.248 34.7598 110.842 34.9057C110.436 35.0515 110.004 35.1099 109.573 35.0772C107.964 35.0772 106.694 34.4993 106.694 32.7654C106.694 31.0315 108.107 30.7807 109.3 30.7807H112.857V31.9148ZM70.8547 26.2443H67.6473V20.9664H63.181V38.3378H70.9313C75.7807 38.3378 77.4993 35.1972 77.4993 32.2311C77.5212 28.4035 75.113 26.2443 70.8547 26.2443ZM70.5263 34.5429H67.6473V30.181H70.5263C72.0698 30.181 73.0002 30.8789 73.0002 32.3619C73.0002 33.845 72.1135 34.5429 70.5263 34.5429ZM161.91 33.0053V27.1494C161.91 22.8747 159.184 20.2031 154.608 20.2031C150.033 20.2031 147.362 23.0383 147.143 25.9935H151.664C151.817 25.361 152.496 24.2378 154.597 24.2378C154.99 24.1875 155.389 24.2287 155.762 24.3584C156.137 24.4882 156.475 24.7027 156.751 24.9853C157.027 25.2677 157.233 25.6103 157.354 25.9859C157.474 26.3616 157.505 26.7599 157.444 27.1494H153.065C149.102 27.1494 146.749 29.2322 146.749 32.6782C146.718 33.5005 146.86 34.3201 147.168 35.084C147.474 35.8479 147.94 36.5389 148.532 37.1125C149.124 37.6861 149.831 38.1294 150.606 38.4138C151.381 38.6981 152.208 38.817 153.032 38.7631C153.971 38.821 154.911 38.645 155.765 38.251C156.619 37.8569 157.361 37.2571 157.925 36.5058C158.283 37.1074 158.803 37.5976 159.426 37.9212C160.049 38.2449 160.75 38.3891 161.45 38.3378H162.994V34.3248C162.216 34.3248 161.91 33.9649 161.91 33.0053ZM157.465 31.9148C157.482 32.3439 157.407 32.7716 157.247 33.1701C157.086 33.5686 156.843 33.9287 156.533 34.2272C156.223 34.5256 155.853 34.7555 155.448 34.9021C155.043 35.0486 154.612 35.1082 154.181 35.0772C152.572 35.0772 151.302 34.4993 151.302 32.7654C151.302 31.0315 152.715 30.7807 153.908 30.7807H157.465V31.9148ZM176.173 27.433H170.01V20.9664H165.544V38.3487H170.01V31.5004H176.173V38.3378H180.64V20.9664H176.173V27.433Z" fill="#83898A"/>
</svg>
