<svg width="220" height="58" viewBox="0 0 220 58" fill="none" xmlns="http://www.w3.org/2000/svg">
<path fill-rule="evenodd" clip-rule="evenodd" d="M16.9512 29.5254C16.9512 19.3112 25.1732 11.0275 35.3194 11.0154V17.704C28.8397 17.7131 23.595 23.003 23.595 29.5254C23.595 36.0479 28.8545 41.3529 35.3463 41.3529C41.838 41.3529 47.0916 36.1083 47.0916 29.4831L53.7384 29.4892C53.7384 39.7518 45.5075 48.0415 35.3463 48.0415C25.1851 48.0415 16.9512 39.7487 16.9512 29.5254ZM27.2283 29.5252C27.2283 24.9906 30.8858 21.314 35.3876 21.314C39.8895 21.314 43.55 24.9906 43.55 29.5252C43.55 34.0598 39.8924 37.7364 35.3876 37.7364C30.8828 37.7364 27.2283 34.0629 27.2283 29.5252ZM45.7217 14.4175C43.1411 14.4175 41.0468 16.5232 41.0468 19.1243C41.0468 21.7225 43.1382 23.8341 45.7217 23.8341C48.3053 23.8341 50.3995 21.7255 50.3995 19.1243C50.3995 16.5232 48.3022 14.4175 45.7217 14.4175Z" fill="#83898A"/>
<path fill-rule="evenodd" clip-rule="evenodd" d="M144.088 33.0902C143.289 36.2381 141.069 41.6791 134.246 41.6791C129.416 41.6791 126.767 39.1565 126.767 34.1898C126.767 33.2934 126.877 32.4073 127 31.5222C128.313 23.2868 131.86 15.4834 139.643 15.4049C140.678 15.3928 142.785 15.284 144.214 14.9426L143.694 18.2326C142.254 18.6042 139.971 18.7975 138.638 18.8066C136.985 18.8247 135.842 19.4561 135.049 20.2235C134.419 20.8319 133.972 21.5797 133.584 22.3654C134.625 22.0391 135.762 21.8337 137.042 21.8337C143.548 21.8337 145.508 27.5045 144.088 33.0871V33.0902ZM140.312 31.9512C141.021 28.9939 141.046 24.5013 137.042 24.5013C131.344 24.5013 130.613 33.4134 130.613 34.7637C130.613 37.6882 132.355 38.9691 134.318 38.9691C138.202 38.9691 139.652 34.9511 140.308 31.9512H140.312ZM183.283 30.3926L183.281 30.401L183.28 30.4046L183.28 30.4056L183.28 30.4071L183.279 30.4092C182.508 33.8921 182.012 36.1364 181.135 40.7462L180.88 40.9637L177.201 41.0725L177.022 40.8187L178.505 34.5621L178.937 32.5108C177.355 32.4745 175.775 32.4474 174.194 32.4474C172.959 32.4474 172.019 32.4624 171.058 32.4897C170.515 34.9518 170.065 37.1149 169.37 40.7432L169.112 40.9607L165.429 41.0695L165.25 40.8157L167.314 31.8341C168.287 27.5411 168.468 26.5986 169.047 22.6349L169.304 22.3811C170.996 22.1636 171.396 22.0881 173.125 21.7256L173.314 21.9793L172.923 23.7829L172.362 26.5895L171.774 29.248C173.102 29.2813 174.429 29.3024 175.765 29.3024C177.066 29.3024 178.365 29.2701 179.665 29.245C180.172 26.9188 180.378 25.6499 180.823 22.6349L181.076 22.3811C182.773 22.1636 183.171 22.0881 184.906 21.7256L185.085 21.9793C184.487 24.7809 183.904 27.5878 183.283 30.3926ZM190.917 29.7188L190.911 29.7219L192.555 21.9879L192.376 21.7341C190.639 22.0966 190.246 22.1722 188.546 22.3897L188.292 22.6434C187.713 26.6072 187.531 27.5497 186.558 31.8426L184.5 40.8243L184.678 41.0781L188.366 40.9693L188.616 40.7518C189.512 36.0721 190.001 33.8184 190.797 30.2414C192.515 33.7416 194.317 37.2189 195.818 40.8243L196.108 41.0418L200.121 40.93L200.335 40.643L194.732 29.9121L199.434 25.5497C200.626 24.4799 201.86 23.4607 203.047 22.3867L202.942 22.0604H198.784L198.384 22.2749C195.996 24.8441 193.556 27.4157 190.917 29.7188ZM165.885 22.127L165.884 22.1261L165.885 22.1239V22.127ZM165.884 22.1261L165.706 21.8339L160.694 21.8007C157.354 21.8007 152.672 22.0152 149.296 25.997C147.771 27.8157 146.393 30.9515 146.393 33.8306C146.393 38.3864 149.409 41.0146 153.108 41.0146C155.07 41.0146 156.882 40.4136 158.41 39.1567L158.156 40.6129L158.334 40.8726L161.744 40.7972L162.004 40.5404C162.726 36.196 162.985 34.8154 164.253 29.1992L165.884 22.1261ZM158.949 36.3501C158.553 36.6704 158.153 37.0419 157.753 37.2896C156.81 37.8758 155.575 38.1326 154.597 38.1326C151.292 38.1326 150.348 35.326 150.348 33.5768C150.348 33.3985 150.42 28.6917 154.23 26.0725C156.374 24.6133 158.734 24.5408 159.931 24.5408C160.477 24.5408 161.016 24.574 161.563 24.574L158.946 36.3501H158.949ZM76.3946 30.9028C75.5563 34.6369 74.2615 37.5371 71.4989 37.5371H71.496C68.3904 37.5371 68.5693 34.371 69.351 30.9028C70.1892 27.1657 71.4482 24.4226 74.2914 24.4226C77.6267 24.4226 76.9883 28.2745 76.3946 30.9028ZM62.6624 31.1717C60.6069 40.3194 66.2752 41.5762 70.2102 41.5762C76.4989 41.5762 81.1947 38.7152 82.931 30.9814L82.9352 30.9618C83.5206 28.1985 85.1604 20.4589 75.4846 20.4589C65.7859 20.4589 63.4291 27.7367 62.6624 31.1717ZM93.2638 41.12C91.4409 41.12 88.4517 41.12 87.1957 41.1563L86.9809 40.9297C87.33 39.7092 88.1832 36.4283 89.0782 32.4254C89.631 29.9641 90.2241 27.5081 90.7011 25.0299C89.1766 25.0662 86.8288 25.0662 85.6862 25.1053L85.4773 24.8395C85.7786 23.8487 86.2022 22.1357 86.4678 21.1085L86.8168 20.9122C87.8312 20.9484 91.6855 20.9877 94.7882 20.9877C98.5412 20.9877 102.193 20.9122 102.959 20.8729L103.219 21.0693C102.94 21.973 102.452 23.8257 102.2 24.7827L102.196 24.8003L101.838 25.0299C100.337 24.9967 99.1976 24.9967 97.0348 24.9967C96.9819 25.2306 96.8974 25.5923 96.7817 26.0884L96.7814 26.0896L96.7813 26.09C96.486 27.3561 95.987 29.4959 95.2864 32.6158C94.5526 35.8996 93.947 38.9057 93.5979 40.8119L93.2668 41.12H93.2638ZM114.312 25.489L114.309 25.486C115.445 25.486 116.797 25.5253 117.406 25.5253C117.146 26.6703 116.49 29.7577 115.842 32.655C114.983 36.4706 114.252 39.5581 113.918 40.8874L114.085 41.1593C115.645 41.123 118.641 41.123 120.267 41.123L120.547 40.8904C120.756 39.7847 121.564 35.8604 122.447 31.9329C123.542 27.057 124.682 22.1447 124.95 21.1145L124.777 20.8789C122.722 20.9181 118.87 21.0329 114.894 21.0329C109.819 21.0329 107.752 20.9544 105.705 20.9544L105.386 21.2233C105.117 22.4045 104.291 26.6007 103.333 30.8635C102.382 35.099 101.388 39.3648 100.997 40.9326L101.209 41.1593C103.115 41.123 105.499 41.123 107.355 41.123L107.713 40.8904C107.99 39.4825 108.703 36.1262 109.509 32.5432C110.189 29.495 110.932 26.3681 111.12 25.5283C111.728 25.5283 113.095 25.489 114.312 25.489Z" fill="#83898A"/>
</svg>
