<svg width="272" height="100" viewBox="0 0 272 100" fill="none" xmlns="http://www.w3.org/2000/svg">
<rect width="272" height="100" fill="#F8F8F8"/>
<path fill-rule="evenodd" clip-rule="evenodd" d="M42.9512 50.5254C42.9512 40.3112 51.1732 32.0275 61.3194 32.0154V38.704C54.8397 38.7131 49.595 44.003 49.595 50.5254C49.595 57.0479 54.8545 62.3529 61.3463 62.3529C67.838 62.3529 73.0916 57.1083 73.0916 50.4831L79.7384 50.4892C79.7384 60.7518 71.5075 69.0415 61.3463 69.0415C51.1851 69.0415 42.9512 60.7487 42.9512 50.5254ZM53.2283 50.5252C53.2283 45.9906 56.8858 42.314 61.3876 42.314C65.8895 42.314 69.55 45.9906 69.55 50.5252C69.55 55.0598 65.8924 58.7364 61.3876 58.7364C56.8828 58.7364 53.2283 55.0629 53.2283 50.5252ZM71.7217 35.4175C69.1411 35.4175 67.0468 37.5232 67.0468 40.1243C67.0468 42.7225 69.1382 44.8341 71.7217 44.8341C74.3053 44.8341 76.3995 42.7255 76.3995 40.1243C76.3995 37.5232 74.3022 35.4175 71.7217 35.4175Z" fill="#83898A"/>
<path fill-rule="evenodd" clip-rule="evenodd" d="M170.088 54.0902C169.289 57.2381 167.069 62.6791 160.246 62.6791C155.416 62.6791 152.767 60.1565 152.767 55.1898C152.767 54.2934 152.877 53.4073 153 52.5222C154.313 44.2868 157.86 36.4834 165.643 36.4049C166.678 36.3928 168.785 36.284 170.214 35.9426L169.694 39.2326C168.254 39.6042 165.971 39.7975 164.638 39.8066C162.985 39.8247 161.842 40.4561 161.049 41.2235C160.419 41.8319 159.972 42.5797 159.584 43.3654C160.625 43.0391 161.762 42.8337 163.042 42.8337C169.548 42.8337 171.508 48.5045 170.088 54.0871V54.0902ZM166.312 52.9512C167.021 49.9939 167.046 45.5013 163.042 45.5013C157.344 45.5013 156.613 54.4134 156.613 55.7637C156.613 58.6882 158.355 59.9691 160.318 59.9691C164.202 59.9691 165.652 55.9511 166.308 52.9512H166.312ZM209.283 51.3926L209.281 51.401L209.28 51.4046L209.28 51.4056L209.28 51.4071L209.279 51.4092C208.508 54.8921 208.012 57.1364 207.135 61.7462L206.88 61.9637L203.201 62.0725L203.022 61.8187L204.505 55.5621L204.937 53.5108C203.355 53.4745 201.775 53.4474 200.194 53.4474C198.959 53.4474 198.019 53.4624 197.058 53.4897C196.515 55.9518 196.065 58.1149 195.37 61.7432L195.112 61.9607L191.429 62.0695L191.25 61.8157L193.314 52.8341C194.287 48.5411 194.468 47.5986 195.047 43.6349L195.304 43.3811C196.996 43.1636 197.396 43.0881 199.125 42.7256L199.314 42.9793L198.923 44.7829L198.362 47.5895L197.774 50.248C199.102 50.2813 200.429 50.3024 201.765 50.3024C203.066 50.3024 204.365 50.2701 205.665 50.245C206.172 47.9188 206.378 46.6499 206.823 43.6349L207.076 43.3811C208.773 43.1636 209.171 43.0881 210.906 42.7256L211.085 42.9793C210.487 45.7809 209.904 48.5878 209.283 51.3926ZM216.917 50.7188L216.911 50.7219L218.555 42.9879L218.376 42.7341C216.639 43.0966 216.246 43.1722 214.546 43.3897L214.292 43.6434C213.713 47.6072 213.531 48.5497 212.558 52.8426L210.5 61.8243L210.678 62.0781L214.366 61.9693L214.616 61.7518C215.512 57.0721 216.001 54.8184 216.797 51.2414C218.515 54.7416 220.317 58.2189 221.818 61.8243L222.108 62.0418L226.121 61.93L226.335 61.643L220.732 50.9121L225.434 46.5497C226.626 45.4799 227.86 44.4607 229.047 43.3867L228.942 43.0604H224.784L224.384 43.2749C221.996 45.8441 219.556 48.4157 216.917 50.7188ZM191.885 43.127L191.884 43.1261L191.885 43.1239V43.127ZM191.884 43.1261L191.706 42.8339L186.694 42.8007C183.354 42.8007 178.672 43.0152 175.296 46.997C173.771 48.8157 172.393 51.9515 172.393 54.8306C172.393 59.3864 175.409 62.0146 179.108 62.0146C181.07 62.0146 182.882 61.4136 184.41 60.1567L184.156 61.6129L184.334 61.8726L187.744 61.7972L188.004 61.5404C188.726 57.196 188.985 55.8154 190.253 50.1992L191.884 43.1261ZM184.949 57.3501C184.553 57.6704 184.153 58.0419 183.753 58.2896C182.81 58.8758 181.575 59.1326 180.597 59.1326C177.292 59.1326 176.348 56.326 176.348 54.5768C176.348 54.3985 176.42 49.6917 180.23 47.0725C182.374 45.6133 184.734 45.5408 185.931 45.5408C186.477 45.5408 187.016 45.574 187.563 45.574L184.946 57.3501H184.949ZM102.395 51.9028C101.556 55.6369 100.261 58.5371 97.4989 58.5371H97.496C94.3904 58.5371 94.5693 55.371 95.351 51.9028C96.1892 48.1657 97.4482 45.4226 100.291 45.4226C103.627 45.4226 102.988 49.2745 102.395 51.9028ZM88.6624 52.1717C86.6069 61.3194 92.2752 62.5762 96.2102 62.5762C102.499 62.5762 107.195 59.7152 108.931 51.9814L108.935 51.9618C109.521 49.1985 111.16 41.4589 101.485 41.4589C91.7859 41.4589 89.4291 48.7367 88.6624 52.1717ZM119.264 62.12C117.441 62.12 114.452 62.12 113.196 62.1563L112.981 61.9297C113.33 60.7092 114.183 57.4283 115.078 53.4254C115.631 50.9641 116.224 48.5081 116.701 46.0299C115.177 46.0662 112.829 46.0662 111.686 46.1053L111.477 45.8395C111.779 44.8487 112.202 43.1357 112.468 42.1085L112.817 41.9122C113.831 41.9484 117.686 41.9877 120.788 41.9877C124.541 41.9877 128.193 41.9122 128.959 41.8729L129.219 42.0693C128.94 42.973 128.452 44.8257 128.2 45.7827L128.196 45.8003L127.838 46.0299C126.337 45.9967 125.198 45.9967 123.035 45.9967C122.982 46.2306 122.897 46.5923 122.782 47.0884L122.781 47.0896L122.781 47.09C122.486 48.3561 121.987 50.4959 121.286 53.6158C120.553 56.8996 119.947 59.9057 119.598 61.8119L119.267 62.12H119.264ZM140.312 46.489L140.309 46.486C141.445 46.486 142.797 46.5253 143.406 46.5253C143.146 47.6703 142.49 50.7577 141.842 53.655C140.983 57.4706 140.252 60.5581 139.918 61.8874L140.085 62.1593C141.645 62.123 144.641 62.123 146.267 62.123L146.547 61.8904C146.756 60.7847 147.564 56.8604 148.447 52.9329C149.542 48.057 150.682 43.1447 150.95 42.1145L150.777 41.8789C148.722 41.9181 144.87 42.0329 140.894 42.0329C135.819 42.0329 133.752 41.9544 131.705 41.9544L131.386 42.2233C131.117 43.4045 130.291 47.6007 129.333 51.8635C128.382 56.099 127.388 60.3648 126.997 61.9326L127.209 62.1593C129.115 62.123 131.499 62.123 133.355 62.123L133.713 61.8904C133.99 60.4825 134.703 57.1262 135.509 53.5432C136.189 50.495 136.932 47.3681 137.12 46.5283C137.728 46.5283 139.095 46.489 140.312 46.489Z" fill="#83898A"/>
</svg>
