<svg width="272" height="100" viewBox="0 0 272 100" fill="none" xmlns="http://www.w3.org/2000/svg">
<rect width="272" height="100" fill="#F8F8F8"/>
<path d="M97.0625 29.4077L83.6855 43.1322H97.0625V70.5924L110.428 56.9016V29.4077H97.0625Z" fill="#83898A"/>
<path d="M83.6858 70.5924L97.0628 56.8679H83.6858V29.4077L70.3198 43.0985V70.5924H83.6858ZM123.806 63.7245H130.823V42.4465H141.474V63.7245H148.491V36.2756H123.806V63.7245ZM191.993 46.5493H185.994V42.4465H199.349V36.2643H178.966V63.7245H192.322C197.674 63.7245 201.681 60.9707 201.681 55.1369C201.681 49.3032 197.674 46.5493 191.982 46.5493H191.993ZM191.314 57.8683H185.983V52.4055H191.314C192.967 52.4055 194.598 53.0799 194.598 55.1369C194.598 57.1939 192.924 57.8683 191.314 57.8683ZM165.71 57.8683C161.025 57.8683 158.387 54.3388 158.387 50.0001C158.387 46.5043 160.302 42.1318 165.568 42.1318C166.748 42.1423 167.911 42.4184 168.976 42.9409C170.04 43.4633 170.981 44.2193 171.731 45.1555L176 40.7717C174.684 39.1551 173.038 37.8551 171.178 36.9636C169.319 36.072 167.292 35.6108 165.239 35.6124C163.39 35.5623 161.551 35.9009 159.835 36.6076C158.118 37.3142 156.561 38.3738 155.257 39.7214C153.954 41.0689 152.933 42.676 152.257 44.4435C151.581 46.2112 151.265 48.1021 151.326 50.0001C151.303 53.0272 152.216 55.9838 153.935 58.4437C155.652 60.9038 158.087 62.7404 160.886 63.6891C163.686 64.6378 166.706 64.6495 169.513 63.7226C172.32 62.7958 174.767 60.9781 176.503 58.5315L172.212 54.1253C171.531 55.2852 170.567 56.2425 169.414 56.9029C168.263 57.5632 166.963 57.9037 165.644 57.8908" fill="#83898A"/>
</svg>
