<svg width="220" height="58" viewBox="0 0 220 58" fill="none" xmlns="http://www.w3.org/2000/svg">
<path d="M71.0625 8.40771L57.6855 22.1322H71.0625V49.5924L84.4285 35.9016V8.40771H71.0625Z" fill="#83898A"/>
<path d="M57.6858 49.5924L71.0628 35.8679H57.6858V8.40771L44.3198 22.0985V49.5924H57.6858ZM97.8057 42.7245H104.823V21.4465H115.474V42.7245H122.491V15.2756H97.8057V42.7245ZM165.993 25.5493H159.994V21.4465H173.349V15.2643H152.966V42.7245H166.322C171.674 42.7245 175.681 39.9707 175.681 34.1369C175.681 28.3032 171.674 25.5493 165.982 25.5493H165.993ZM165.314 36.8683H159.983V31.4055H165.314C166.967 31.4055 168.598 32.0799 168.598 34.1369C168.598 36.1939 166.924 36.8683 165.314 36.8683ZM139.71 36.8683C135.025 36.8683 132.387 33.3388 132.387 29.0001C132.387 25.5043 134.302 21.1318 139.568 21.1318C140.748 21.1423 141.911 21.4184 142.976 21.9409C144.04 22.4633 144.981 23.2193 145.731 24.1555L150 19.7717C148.684 18.1551 147.038 16.8551 145.178 15.9636C143.319 15.072 141.292 14.6108 139.239 14.6124C137.39 14.5623 135.551 14.9009 133.835 15.6076C132.118 16.3142 130.561 17.3738 129.257 18.7214C127.954 20.0689 126.933 21.676 126.257 23.4435C125.581 25.2112 125.265 27.1021 125.326 29.0001C125.303 32.0272 126.216 34.9838 127.935 37.4437C129.652 39.9038 132.087 41.7404 134.886 42.6891C137.686 43.6378 140.706 43.6495 143.513 42.7226C146.32 41.7958 148.767 39.9781 150.503 37.5315L146.212 33.1253C145.531 34.2852 144.567 35.2425 143.414 35.9029C142.263 36.5632 140.963 36.9037 139.644 36.8908" fill="#83898A"/>
</svg>
