<svg width="272" height="100" viewBox="0 0 272 100" fill="none" xmlns="http://www.w3.org/2000/svg">
<rect width="272" height="100" fill="#F8F8F8"/>
<path fill-rule="evenodd" clip-rule="evenodd" d="M130.449 45.2369C132.226 45.2369 133.859 45.3823 135.108 45.8686C137.751 46.8901 139.432 49.1749 139.432 52.4804C139.432 55.7386 137.655 58.2179 135.013 59.2386C133.763 59.7248 132.082 59.9193 129.824 59.9193H113.586V36.7773H137.558V42.125H120.552V45.2369H130.449ZM130.064 54.0854C130.737 54.0854 131.265 54.0364 131.65 53.8909C132.466 53.5992 132.802 52.8694 132.802 52.1887C132.802 51.9319 132.761 51.695 132.679 51.4847C132.63 51.3592 132.566 51.2428 132.487 51.1364C132.349 50.9511 132.166 50.7973 131.938 50.6818C131.868 50.6469 131.795 50.6153 131.719 50.5879C131.598 50.5438 131.468 50.5097 131.331 50.4823C130.964 50.4092 130.542 50.3901 130.064 50.3901H120.552V54.0854H130.064ZM148.779 36.7773H158.963L168.331 59.9193H160.501L159.155 56.5647H148.587L147.29 59.9193H139.411L148.779 36.7773ZM153.631 42.125L150.316 51.4598H157.474L154.159 42.125H153.631ZM177.297 51.3143V59.9193H170.332V36.7773H177.297V45.2369H188.491V36.7773H195.457V59.9193H188.491V51.3143H177.297ZM206.482 59.9193V51.168H208.404L216.715 59.9193H225.987L214.409 47.8625L225.554 36.7773H216.811L208.404 45.4804H206.482V36.7773H199.517V59.9193H206.482Z" fill="#83898A"/>
<path d="M44.9868 21.8992H100.52V50.1646C100.52 57.4106 96.7009 64.1064 90.5006 67.7298L72.7536 78.101L55.0067 67.7298C48.8063 64.1064 44.9868 57.4106 44.9868 50.1646V21.8992Z" fill="#ECECED"/>
<path fill-rule="evenodd" clip-rule="evenodd" d="M60.2271 36.7773V45.5685C61.4149 44.211 63.5746 43.2922 66.044 43.2922H68.7276V53.5118C68.7276 56.2307 67.9976 58.6105 66.9145 59.9195H78.5873C77.5065 58.6092 76.7782 56.2324 76.7782 53.517V43.2922H79.4619C81.9313 43.2922 84.0909 44.211 85.2789 45.5685V36.7773H60.2271Z" fill="#83898A"/>
</svg>
