<svg width="184" height="58" viewBox="0 0 184 58" fill="none" xmlns="http://www.w3.org/2000/svg">
<path fill-rule="evenodd" clip-rule="evenodd" d="M86.4487 24.2369C88.2261 24.2369 89.8594 24.3823 91.1084 24.8686C93.7506 25.8901 95.432 28.1749 95.432 31.4804C95.432 34.7386 93.6548 37.2179 91.0125 38.2386C89.7631 38.7248 88.0822 38.9193 85.8241 38.9193H69.5864V15.7773H93.5585V21.125H76.5521V24.2369H86.4487ZM86.0641 33.0854C86.7367 33.0854 87.2652 33.0364 87.6496 32.8909C88.4663 32.5992 88.8024 31.8694 88.8024 31.1887C88.8024 30.9319 88.7614 30.695 88.6791 30.4847C88.6298 30.3592 88.5657 30.2428 88.4871 30.1364C88.3491 29.9511 88.166 29.7973 87.9378 29.6818C87.868 29.6469 87.7952 29.6153 87.7194 29.5879C87.5976 29.5438 87.4681 29.5097 87.3309 29.4823C86.9644 29.4092 86.5423 29.3901 86.0641 29.3901H76.5521V33.0854H86.0641ZM104.779 15.7773H114.963L124.331 38.9193H116.501L115.155 35.5647H104.587L103.29 38.9193H95.4111L104.779 15.7773ZM109.631 21.125L106.316 30.4598H113.474L110.159 21.125H109.631ZM133.297 30.3143V38.9193H126.332V15.7773H133.297V24.2369H144.491V15.7773H151.457V38.9193H144.491V30.3143H133.297ZM162.482 38.9193V30.168H164.404L172.715 38.9193H181.987L170.409 26.8625L181.554 15.7773H172.811L164.404 24.4804H162.482V15.7773H155.517V38.9193H162.482Z" fill="#83898A"/>
<path d="M0.986816 0.89917H56.5205V29.1646C56.5205 36.4106 52.7009 43.1064 46.5006 46.7298L28.7536 57.101L11.0067 46.7298C4.80632 43.1064 0.986816 36.4106 0.986816 29.1646V0.89917Z" fill="#ECECED"/>
<path fill-rule="evenodd" clip-rule="evenodd" d="M16.2271 15.7773V24.5685C17.4149 23.211 19.5746 22.2922 22.044 22.2922H24.7276V32.5118C24.7276 35.2307 23.9976 37.6105 22.9145 38.9195H34.5873C33.5065 37.6092 32.7782 35.2324 32.7782 32.517V22.2922H35.4619C37.9313 22.2922 40.0909 23.211 41.2789 24.5685V15.7773H16.2271Z" fill="#83898A"/>
</svg>
