<svg width="272" height="100" viewBox="0 0 272 100" fill="none" xmlns="http://www.w3.org/2000/svg">
<rect width="272" height="100" fill="#F8F8F8"/>
<path d="M80.9343 26.4739L78.7265 32.6688H109.312L111.52 26.4739H80.9343ZM77.6238 35.7637L75.4159 41.9573H106.001L108.209 35.7637H77.6238ZM74.3197 45.0535L72.1118 51.2458H102.697L104.903 45.0522C104.904 45.0535 74.3197 45.0535 74.3197 45.0535Z" fill="#83898A"/>
<path d="M136.411 53.1896V53.3183C137.785 53.8343 139.098 54.7377 139.785 55.3181C141.908 57.1248 142.846 59.5106 142.846 62.6068C142.846 67.7053 140.222 71.3805 135.911 72.5426C134.597 72.9299 133.224 73.0586 130.663 73.0586H117.608V35.7708H129.166C131.541 35.7708 133.164 35.8994 134.6 36.2855C138.786 37.4475 141.536 40.415 141.536 45.1236C141.536 47.6407 140.661 49.7704 139.225 51.1885C138.6 51.8332 137.726 52.6079 136.414 53.1883L136.411 53.1896ZM124.855 57.1248V66.9306H129.853C131.351 66.9306 132.727 66.8019 133.726 65.8342C134.726 64.8665 135.162 63.6401 135.162 62.0277C135.162 60.804 134.849 59.6419 134.225 58.8029C133.164 57.4478 131.85 57.1248 129.603 57.1248H124.853H124.855ZM124.79 50.6725H128.852C130.101 50.6725 130.726 50.6725 131.35 50.4795C133.038 49.9621 134.099 48.4167 134.099 46.2869C134.099 43.7711 132.975 42.6734 131.35 42.1587C130.662 41.9644 129.976 41.9014 128.602 41.9014H124.79V50.6738V50.6725ZM153.716 73.0599V42.0287H143.284V35.7721H172.273L170.211 42.0287H160.964V73.0599H153.716ZM174.522 73.0599V35.7721H198.012L195.951 42.0287H181.707V50.2878H187.518C192.204 50.2878 194.64 51.4498 196.328 52.9323C197.641 54.0943 199.889 56.6731 199.889 61.7717C199.889 66.8033 197.578 69.5764 195.64 70.9971C193.391 72.6082 191.018 73.0612 186.205 73.0612H174.523H174.522V73.0599ZM181.706 66.8006H187.141C189.203 66.8006 190.452 66.2846 191.326 65.1226C191.762 64.5435 192.387 63.5088 192.387 61.5747C192.387 59.6406 191.762 58.2842 190.513 57.3165C189.765 56.7375 188.764 56.4158 187.077 56.4158H181.704V66.8006H181.706Z" fill="#83898A"/>
</svg>
