<svg width="220" height="58" viewBox="0 0 220 58" fill="none" xmlns="http://www.w3.org/2000/svg">
<path d="M62.6435 8.76758L60.7447 14.0952H87.0483L88.947 8.76758H62.6435ZM59.7965 16.7568L57.8977 22.0833H84.2012L86.1 16.7568H59.7965ZM56.9549 24.746L55.0562 30.0714H81.3597L83.2562 24.7449C83.2574 24.746 56.9549 24.746 56.9549 24.746Z" fill="#83898A"/>
<path d="M110.354 31.7434V31.8541C111.535 32.2978 112.664 33.0747 113.255 33.5739C115.081 35.1277 115.888 37.1795 115.888 39.8422C115.888 44.2269 113.631 47.3876 109.923 48.387C108.794 48.7201 107.613 48.8307 105.41 48.8307H94.1831V16.7632H104.123C106.165 16.7632 107.561 16.8738 108.796 17.2058C112.396 18.2052 114.761 20.7572 114.761 24.8066C114.761 26.9713 114.009 28.8029 112.773 30.0225C112.236 30.5769 111.484 31.2432 110.356 31.7423L110.354 31.7434ZM100.415 35.1277V43.5607H104.714C106.002 43.5607 107.185 43.45 108.044 42.6178C108.904 41.7855 109.279 40.7309 109.279 39.3442C109.279 38.2917 109.01 37.2924 108.474 36.5708C107.561 35.4055 106.431 35.1277 104.498 35.1277H100.414H100.415ZM100.36 29.5787H103.852C104.927 29.5787 105.464 29.5787 106.001 29.4127C107.452 28.9678 108.365 27.6387 108.365 25.8071C108.365 23.6435 107.398 22.6995 106.001 22.2568C105.409 22.0897 104.82 22.0355 103.637 22.0355H100.36V29.5798V29.5787ZM125.236 48.8319V22.145H116.264V16.7643H141.194L139.421 22.145H131.469V48.8319H125.236ZM143.128 48.8319V16.7643H163.33L161.558 22.145H149.308V29.2478H154.306C158.335 29.2478 160.43 30.2472 161.882 31.5221C163.011 32.5214 164.944 34.7392 164.944 39.124C164.944 43.4511 162.957 45.8361 161.29 47.0579C159.356 48.4434 157.315 48.833 153.176 48.833H143.129H143.128V48.8319ZM149.307 43.4489H153.981C155.754 43.4489 156.828 43.0051 157.58 42.0057C157.955 41.5078 158.493 40.6179 158.493 38.9546C158.493 37.2913 157.955 36.1248 156.881 35.2925C156.238 34.7945 155.377 34.5179 153.926 34.5179H149.305V43.4489H149.307Z" fill="#83898A"/>
</svg>
